<?xml version="1.0" standalone="no"?><!DOCTYPE svg PUBLIC "-//W3C//DTD SVG 1.1//EN" "http://www.w3.org/Graphics/SVG/1.1/DTD/svg11.dtd"><svg t="1609843699090" class="icon" viewBox="0 0 1024 1024" version="1.1" xmlns="http://www.w3.org/2000/svg" p-id="1113" xmlns:xlink="http://www.w3.org/1999/xlink" width="200" height="200"><defs><style type="text/css"></style></defs><path d="M0 0h1024v1024H0z" fill="#FFFFFF" fill-opacity=".01" p-id="1114"></path><path d="M160 384h64v480h160.128l0.416-192.128a64 64 0 0 1 59.2-63.68l4.8-0.192h126.88a64 64 0 0 1 63.808 59.072l0.192 4.768 0.48 192.16H800V384h64v480a64 64 0 0 1-59.2 63.84L800 928h-160.096a64 64 0 0 1-63.808-59.072l-0.192-4.768L575.424 672h-126.88l-0.416 192.128a64 64 0 0 1-59.2 63.68l-4.8 0.192H224a64 64 0 0 1-63.84-59.2L160 864V384z m608 480v64H256v-64h512zM549.248 108.16l4.352 3.456 394.976 342.08a33.6 33.6 0 0 1 3.84 46.592 31.68 31.68 0 0 1-42.208 6.4l-3.232-2.496L512 162.112 117.024 504.16a31.68 31.68 0 0 1-45.44-3.904 33.664 33.664 0 0 1 0.928-43.712l2.912-2.88L470.4 111.648a63.232 63.232 0 0 1 78.848-3.456z" fill="#000000" p-id="1115"></path></svg>